<svg width="154" height="136" viewBox="0 0 154 136" fill="none" xmlns="http://www.w3.org/2000/svg">
<path d="M25.6934 105.348C25.6934 105.348 -19.7289 82.2967 24.9842 38.3397C69.6973 -5.61741 118.227 0.691175 141.284 62.377C164.341 124.063 73.4051 134.792 25.6934 105.348Z" fill="#F0F6F1"/>
<path d="M138.424 135.994C143.889 135.994 148.32 131.563 148.32 126.098C148.32 120.632 143.889 116.201 138.424 116.201C132.958 116.201 128.527 120.632 128.527 126.098C128.527 131.563 132.958 135.994 138.424 135.994Z" fill="#F0F6F1"/>
<path d="M19.0783 29.8379C23.4744 29.8379 27.0382 26.2378 27.0382 21.7969C27.0382 17.356 23.4744 13.756 19.0783 13.756C14.6822 13.756 11.1184 17.356 11.1184 21.7969C11.1184 26.2378 14.6822 29.8379 19.0783 29.8379Z" fill="#F0F6F1"/>
<path d="M120.77 29.482V113.849C120.77 115.92 119.944 117.907 118.476 119.372C117.007 120.836 115.015 121.659 112.937 121.659H41.4483C39.3711 121.659 37.3789 120.836 35.9101 119.372C34.4413 117.907 33.6161 115.92 33.6161 113.849V29.482C33.6161 27.4106 34.4413 25.4241 35.9101 23.9595C37.3789 22.4948 39.3711 21.672 41.4483 21.672H54.2737V27.4123H40.9001C40.3808 27.4123 39.8827 27.618 39.5155 27.9842C39.1483 28.3503 38.942 28.847 38.942 29.3648V113.966C38.942 114.484 39.1483 114.981 39.5155 115.347C39.8827 115.713 40.3808 115.919 40.9001 115.919H113.642C114.162 115.919 114.66 115.713 115.027 115.347C115.394 114.981 115.6 114.484 115.6 113.966V29.3453C115.6 28.8275 115.394 28.3308 115.027 27.9647C114.66 27.5985 114.162 27.3928 113.642 27.3928H100.269V21.672H112.937C115.015 21.672 117.007 22.4948 118.476 23.9595C119.944 25.4241 120.77 27.4106 120.77 29.482Z" fill="#A9D4EF"/>
<path d="M115.599 29.3448V113.966C115.599 114.484 115.393 114.98 115.026 115.346C114.659 115.713 114.161 115.918 113.641 115.918H40.8991C40.3798 115.918 39.8818 115.713 39.5145 115.346C39.1473 114.98 38.941 114.484 38.941 113.966V29.3448C38.941 28.827 39.1473 28.3304 39.5145 27.9642C39.8818 27.598 40.3798 27.3923 40.8991 27.3923H54.2727V30.6725C54.2778 31.3286 54.5414 31.9563 55.0067 32.4203C55.4719 32.8842 56.1015 33.1471 56.7594 33.1522H97.7613C98.4227 33.1522 99.0572 32.8916 99.5267 32.4271C99.9961 31.9626 100.262 31.332 100.268 30.6725V27.4119H113.641C114.157 27.4118 114.652 27.6149 115.019 27.9768C115.386 28.3388 115.594 28.8304 115.599 29.3448ZM64.5329 103.539V93.1912C64.5329 92.6734 64.3267 92.1768 63.9594 91.8106C63.5922 91.4444 63.0942 91.2387 62.5749 91.2387H52.1971C51.6778 91.2387 51.1798 91.4444 50.8126 91.8106C50.4454 92.1768 50.2391 92.6734 50.2391 93.1912V103.539C50.2391 104.057 50.4454 104.554 50.8126 104.92C51.1798 105.286 51.6778 105.492 52.1971 105.492H62.5749C63.0908 105.492 63.5859 105.289 63.9526 104.927C64.3192 104.565 64.5278 104.073 64.5329 103.559V103.539ZM64.5329 81.4568V71.1476C64.5329 70.6298 64.3267 70.1332 63.9594 69.767C63.5922 69.4008 63.0942 69.1951 62.5749 69.1951H52.1971C51.6778 69.1951 51.1798 69.4008 50.8126 69.767C50.4454 70.1332 50.2391 70.6298 50.2391 71.1476V81.4763C50.2391 81.9941 50.4454 82.4907 50.8126 82.8569C51.1798 83.2231 51.6778 83.4288 52.1971 83.4288H62.5749C63.0942 83.4288 63.5922 83.2231 63.9594 82.8569C64.3267 82.4907 64.5329 81.9941 64.5329 81.4763V81.4568ZM64.5329 57.3045V46.9563C64.5329 46.4384 64.3267 45.9418 63.9594 45.5757C63.5922 45.2095 63.0942 45.0038 62.5749 45.0038H52.1971C51.6778 45.0038 51.1798 45.2095 50.8126 45.5757C50.4454 45.9418 50.2391 46.4384 50.2391 46.9563V57.3045C50.2391 57.8223 50.4454 58.3189 50.8126 58.6851C51.1798 59.0513 51.6778 59.257 52.1971 59.257H62.5749C63.0908 59.257 63.5859 59.054 63.9526 58.692C64.3192 58.3301 64.5278 57.8384 64.5329 57.324V57.3045Z" fill="#D4EAF7"/>
<path d="M54.2737 27.4123V21.672H100.269V30.6925C100.263 31.3519 99.9971 31.9826 99.5277 32.4471C99.0582 32.9116 98.4237 33.1722 97.7623 33.1722H56.7604C56.1025 33.1671 55.4729 32.9042 55.0077 32.4402C54.5424 31.9763 54.2788 31.3486 54.2737 30.6925V27.4123Z" fill="#54AADE"/>
<path d="M100.269 18.9771V21.6715H77.5942C78.6252 21.6754 79.6341 21.3741 80.4932 20.8057C81.3523 20.2374 82.023 19.4276 82.4202 18.479C82.8174 17.5303 82.9233 16.4854 82.7246 15.4767C82.5258 14.4679 82.0313 13.5407 81.3037 12.8124C80.576 12.0841 79.648 11.5875 78.6371 11.3855C77.6263 11.1835 76.578 11.2852 75.6252 11.6778C74.6723 12.0703 73.8577 12.7359 73.2845 13.5904C72.7113 14.4449 72.4054 15.4498 72.4054 16.4779C72.4002 17.1597 72.5307 17.8358 72.7894 18.467C73.0481 19.0981 73.4298 19.6719 73.9124 20.1549C74.395 20.638 74.9689 21.0208 75.6009 21.2811C76.2329 21.5414 76.9104 21.6741 77.5942 21.6715H54.2737V18.9771C54.2737 18.3176 54.535 17.6849 55.0008 17.2167C55.4666 16.7486 56.0991 16.483 56.7604 16.4779H64.8472C64.7094 14.7275 64.9362 12.9677 65.5133 11.309C66.0904 9.65025 67.0054 8.12849 68.2007 6.83934C69.396 5.55019 70.8458 4.52152 72.459 3.818C74.0722 3.11448 75.8139 2.7513 77.5747 2.7513C79.3354 2.7513 81.0771 3.11448 82.6903 3.818C84.3035 4.52152 85.7533 5.55019 86.9486 6.83934C88.1439 8.12849 89.0589 9.65025 89.636 11.309C90.2131 12.9677 90.4399 14.7275 90.3021 16.4779H97.7036C98.0376 16.4701 98.3699 16.5289 98.6808 16.651C98.9917 16.7731 99.2749 16.956 99.5139 17.1888C99.7529 17.4217 99.9428 17.6998 100.072 18.0069C100.202 18.314 100.269 18.6439 100.269 18.9771Z" fill="#54AADE"/>
<path d="M64.5331 93.2112V103.559C64.5331 104.077 64.3268 104.574 63.9596 104.94C63.5924 105.306 63.0944 105.512 62.5751 105.512H52.1973C51.678 105.512 51.18 105.306 50.8128 104.94C50.4456 104.574 50.2393 104.077 50.2393 103.559V93.2112C50.2393 92.6934 50.4456 92.1967 50.8128 91.8306C51.18 91.4644 51.678 91.2587 52.1973 91.2587H62.5751C63.0944 91.2587 63.5924 91.4644 63.9596 91.8306C64.3268 92.1967 64.5331 92.6934 64.5331 93.2112Z" fill="#F1F6FA"/>
<path d="M64.5331 71.1476V81.4763C64.5331 81.9942 64.3269 82.4908 63.9596 82.8569C63.5924 83.2231 63.0944 83.4288 62.5751 83.4288H52.1973C51.678 83.4288 51.18 83.2231 50.8128 82.8569C50.4456 82.4908 50.2393 81.9942 50.2393 81.4763V71.1476C50.2393 70.6298 50.4456 70.1332 50.8128 69.767C51.18 69.4009 51.678 69.1952 52.1973 69.1952H62.5751C63.0944 69.1952 63.5924 69.4009 63.9596 69.767C64.3269 70.1332 64.5331 70.6298 64.5331 71.1476Z" fill="#F1F6FA"/>
<path d="M64.5331 48.5567V57.3234C64.5331 57.8412 64.3269 58.3378 63.9596 58.704C63.5924 59.0701 63.0944 59.2759 62.5751 59.2759H52.1973C51.678 59.2759 51.18 59.0701 50.8128 58.704C50.4456 58.3378 50.2393 57.8412 50.2393 57.3234V52.8326H53.0001L55.996 55.7418L61.7723 48.5567H64.5331Z" fill="#F1F6FA"/>
<path d="M64.5336 46.9757V48.5573H61.7923L56.016 55.7424L53.0201 52.8332H50.2593V46.9757C50.2593 46.4579 50.4656 45.9613 50.8328 45.5951C51.2 45.229 51.698 45.0233 52.2173 45.0233H62.5951C63.111 45.0284 63.604 45.2364 63.967 45.602C64.33 45.9676 64.5336 46.4613 64.5336 46.9757Z" fill="#F1F6FA"/>
<path d="M71.9174 49.4154H102.737" stroke="#54AADE" stroke-width="2.96237" stroke-miterlimit="10" stroke-linecap="round"/>
<path d="M71.9174 54.8835H96.1778" stroke="#54AADE" stroke-width="2.96237" stroke-miterlimit="10" stroke-linecap="round"/>
<path d="M71.9174 95.8657H102.307" stroke="#54AADE" stroke-width="2.96237" stroke-miterlimit="10" stroke-linecap="round"/>
<path d="M71.9174 100.884H96.1778" stroke="#54AADE" stroke-width="2.96237" stroke-miterlimit="10" stroke-linecap="round"/>
<path d="M71.9174 73.8803H102.737" stroke="#54AADE" stroke-width="2.96237" stroke-miterlimit="10" stroke-linecap="round"/>
<path d="M71.9174 78.7223H96.1778" stroke="#54AADE" stroke-width="2.96237" stroke-miterlimit="10" stroke-linecap="round"/>
<path d="M53.0201 52.8326L56.016 55.7418L61.7923 48.5567" stroke="#2995D6" stroke-width="2.96237" stroke-linecap="round" stroke-linejoin="round"/>
<path d="M54.1757 72.9044L60.6373 79.2695" stroke="#2995D6" stroke-width="2.96237" stroke-linecap="round" stroke-linejoin="round"/>
<path d="M60.6373 72.9044L54.1757 79.2695" stroke="#2995D6" stroke-width="2.96237" stroke-linecap="round" stroke-linejoin="round"/>
</svg>