<svg width="154" height="126" viewBox="0 0 154 126" fill="none" xmlns="http://www.w3.org/2000/svg">
<path d="M30.8744 97.0536C30.8744 97.0536 -9.59538 73.3085 34.1332 35.6532C77.8618 -2.00203 122.17 6.59261 139.795 64.4172C157.42 122.242 73.0787 126.786 30.8744 97.0536Z" fill="#F0F6F1"/>
<path d="M142.346 31.0215C147.941 31.0215 152.477 26.51 152.477 20.9448C152.477 15.3796 147.941 10.8681 142.346 10.8681C136.751 10.8681 132.216 15.3796 132.216 20.9448C132.216 26.51 136.751 31.0215 142.346 31.0215Z" fill="#F0F6F1"/>
<path d="M8.32858 105.102C12.9283 105.102 16.6572 101.393 16.6572 96.8179C16.6572 92.2426 12.9283 88.5336 8.32858 88.5336C3.72883 88.5336 0 92.2426 0 96.8179C0 101.393 3.72883 105.102 8.32858 105.102Z" fill="#F0F6F1"/>
<path d="M138.394 44.6673C140.638 46.9189 140.695 50.5402 138.469 52.8293L121.737 70.1664C121.285 70.598 120.606 70.5417 120.172 70.1101L118.304 68.2338L97.5734 47.0315L95.7248 45.1177C95.2909 44.6673 95.2909 43.9543 95.7248 43.5416L111.985 26.7861C114.249 24.422 118.021 24.4032 120.342 26.7111L134.678 40.971L135.734 42.003L138.394 44.6673Z" fill="#54AADE"/>
<path d="M97.5743 47.0118L118.305 68.2141L118.003 68.4955L105.723 86.9209H105.553C105.308 85.9452 104.874 85.0446 104.346 84.4066C102.856 82.6429 80.1256 63.2606 80.1256 63.2606C80.1256 63.2606 78.0507 65.212 74.8439 65.3621C74.2403 65.3809 73.7121 65.7186 73.3537 66.1877C71.9201 68.064 67.9776 72.2106 62.5261 70.278C60.8284 69.6776 59.7343 68.1015 59.7721 66.319C59.8475 63.7109 61.4886 59.4142 68.5813 53.5038C68.5813 53.5038 75.8248 45.0417 87.9728 51.196C87.9728 51.196 92.2548 53.1848 95.82 48.9631L97.1027 47.4621L97.5743 47.0118Z" fill="#D4EAF7"/>
<path d="M98.4794 93.2458C98.6492 93.6773 98.7057 94.0901 98.6869 94.5217C98.4605 96.5293 95.5367 101.52 90.1606 97.4487L90.0286 97.505C90.3304 98.0867 90.3493 98.7621 90.1041 99.3813C89.2552 101.389 87.4066 103.096 85.1618 103.078C84.0678 103.078 82.9926 102.702 82.0117 102.158L81.5024 103.003C73.0704 114.917 34.0798 69.8107 34.0798 69.8107L53.3771 50.0531L68.5809 53.4868C61.4883 59.4159 59.8472 63.6939 59.7717 66.302C59.7152 68.0845 60.8281 69.6606 62.5258 70.261C67.9773 72.1936 71.9198 68.0469 73.3534 66.1706C73.7118 65.7016 74.24 65.3638 74.8436 65.3451C78.0504 65.195 80.1253 63.2436 80.1253 63.2436C80.1253 63.2436 102.856 82.6446 104.346 84.3896C104.874 85.0088 105.308 85.9282 105.553 86.9039C106.364 90.2249 105.195 94.578 98.6869 93.152L98.4794 93.2458Z" fill="#A9D4EF"/>
<path d="M57.3948 44.3865C57.8286 44.8368 57.8286 45.5498 57.3948 45.9626L53.3769 50.053L34.0796 69.8105L32.9478 70.9738C32.514 71.4241 31.8349 71.4429 31.3822 71.0489L14.2542 54.3685C11.9152 52.0794 11.9152 48.3643 14.1976 46.0939L32.3631 28.0251C34.6267 25.7923 38.2862 25.7735 40.5875 28.0063L57.3948 44.3865Z" fill="#54AADE"/>
<path d="M84.6329 78.758L97.8939 92.38" stroke="#2995D6" stroke-width="2.51368" stroke-miterlimit="10" stroke-linecap="round" stroke-linejoin="round"/>
<path d="M82.0111 102.138C81.0302 101.612 80.087 100.899 79.2948 100.28C76.5973 98.1223 74.2583 95.458 72.2021 92.6998" stroke="#2995D6" stroke-width="2.51368" stroke-miterlimit="10" stroke-linecap="round" stroke-linejoin="round"/>
<path d="M77.8049 85.551C77.8049 85.551 86.9348 94.2383 89.5945 96.8651" stroke="#2995D6" stroke-width="2.51368" stroke-miterlimit="10" stroke-linecap="round" stroke-linejoin="round"/>
<path d="M65.2845 32.7038L74.6967 41.6444L92.8442 19.503" stroke="#54AADE" stroke-width="4.18946" stroke-linecap="round" stroke-linejoin="round"/>
</svg>